<svg xmlns="http://www.w3.org/2000/svg" viewBox="0 0 1572.39 1866"><defs><style>.cls-1{fill:#dc0404;}.cls-2{fill:#242929;}.cls-3{fill:#895d03;}.cls-4{fill:#fff;}</style></defs><title>LaMaline-Logo-Svg</title><g id="Marmitte"><ellipse class="cls-1" cx="785.69" cy="1578.5" rx="34.5" ry="158.5"/><path class="cls-2" d="M995,1965c-112,0-224.06,14.38-336,4.55-16.73-1.47-33.79-8.88-42.84-23.05-90.68-142,238.28-260.15,314.85-296.5l-265-1c-55.6,60.71-135.3,124-177.82,194.25-21,34.72-10.82,55.49-1.84,99.2L514,2077H995" transform="translate(-210.81 -211)"/><path class="cls-2" d="M990,1965c112,0,224.06,14.38,336,4.55,16.73-1.47,33.79-8.88,42.84-23.05,90.68-142-238.28-260.15-314.85-296.5l265-1c55.6,60.71,135.3,124,177.82,194.25,21,34.72,10.82,55.49,1.84,99.2L1471,2077H990" transform="translate(-210.81 -211)"/><path class="cls-3" d="M1088,700.59H456c8.06,83.13,28.54,186.62,7.5,269.42-.67,2.65-1.49,5.42-3.45,7.35C462.49,975,359.13,854.66,336,848.59c-39.36-10.33-95.15,2.18-116.46,40.54-17.33,31.21-3.63,65-3,67.06,10.13,31.37,43.81,54.82,76.24,48.9,31.94-5.83,56.43-43.5,42.86-74.61,51.11,54.74,103.53,111.58,128.78,182.09,10.7,29.89,16.16,61.35,22.87,92.38a1146.39,1146.39,0,0,0,150.76,368.79c17.73,28.06,52.35,34.35,90,33.26h0c123.59-3.61,245.08-13.42,369.35-11.7Z" transform="translate(-210.81 -211)"/><path class="cls-3" d="M1774.46,889.13c-21.31-38.36-77.1-50.87-116.46-40.54-23.13,6.07-126.49,126.39-124.05,128.78-2-1.93-2.78-4.7-3.45-7.35-21-82.8-.56-186.29,7.5-269.42H906l-9.47,894.71c124.27-1.72,245.76,8.09,369.35,11.7h0c37.65,1.09,72.27-5.2,90-33.26A1146.39,1146.39,0,0,0,1506.68,1205c6.71-31,12.17-62.49,22.87-92.38,25.25-70.51,77.67-127.35,128.78-182.09-13.57,31.11,10.92,68.78,42.86,74.61,32.43,5.92,66.11-17.53,76.24-48.9C1778.09,954.14,1791.79,920.34,1774.46,889.13Z" transform="translate(-210.81 -211)"/><path class="cls-2" d="M998.55,566.6s-17.15-44.09,0-91.34c1.44-4,4.88-12.68,8.83-22.49.66-1.64,1.33-3.3,6.67-3.77,41.38,4.19,43.85,33.11,37.67,54.43-2.47,11.42,7.42,22.07,23.49,29.69,16.07,6.09,33.38,6.85,50.69,3s26-13.7,28.44-24.36c1.24-8.37-4.95-16.75-16.07-22.07-17.31-8.37-42-5.33-53.17,6.09-4.95,5.33-3.71,11.42,1.24,16.75,4.95,3.81,11.13,6.85,18.55,6.85,9.89,0,19.78-5.33,17.31-12.18-1.24-3-9.89-5.33-11.13-1.52-1.24,2.28,1.24,6.09-4.95,6.85s-11.13,0-14.84-3c-6.18-6.09-1.24-12.18,4.95-17.51-9.89,6.09-11.13,16.75,0,21.31,11.13,3.81,18.55-2.28,17.31-9.13,6.18,0,6.18,3,7.42,5.33,1.24,4.57-3.71,7.61-9.89,9.13-16.07,2.28-29.68-6.85-28.44-16,1.24-10.66,18.55-19,35.86-17.51,21,1.52,37.09,12.94,35.86,25.88-2.47,21.31-42,34.25-73,24.36-26-9.13-32.15-28.16-28.44-45.67,4.95-26.64-2.47-57.09-27.2-79.93-1.24-.76-4.95,6.09-8.66,6.85-8.66,1.52-22.26-3.81-19.78-6.09,6.18-8.37,12.36-19,30.91-22.07,17.31-3.81,37.09.76,48.22,9.9,6.18,5.33,24.73,2.28,38.31,4.22,4.38,0,8.12,0,11.48-.06,13.42-.16,20.69-.36,20.69-.36,81.72-2.24,85-8.81,126.12-4.57,45.91,4.74,56.85,14.49,74.19,9.13,33.38-10.32,43.54-62.17,7.42-91.34-23.84-19.26-47.47-12.19-126.12-36.54q-5.45-1.69-10.37-3.3c-2-.51-4.46-1.27-3.23-3.55,4.95-5.33,16.07-3.81,22.26-7.61-45.75-6.09-80.37-22.84-105.1-49.48-9.89-9.13-37.09-.76-48.22,9.13-7.42,8.37-8.66,17.51-2.47,25.88a50.74,50.74,0,0,0,33.38,16.75c12.36,2.28,32.15,0,30.91-7.61s-18.55-16-32.15-14.46c-9.89.76,0,8.37,6.18,11.42-9.89,5.33-19.78-3-23.49-8.37-4.95-6.09-2.47-12.94,3.71-18.27,3.71-3,9.89-5.33,16.07-3,24.73,10.66,43.28,23.6,65.53,35.78-38.33,21.31-97.68,19.79-128.59-9.13-1.24-2.28-7.42.76-11.57,1.52q-5.9,2.09-11.52,4.47c-18.72,7.9-34.88,18-46.15,29-23.63,23.09-10.67,35.39-35.86,50.24-28.68,16.91-56.66,7.57-111.28,18.27-6.23,1.22-34.38,6.73-62.67,17.75-2.25.81-4.39,1.64-6.7,2.51-14.71,2.58-27.08,9.43-40.68,10.19-26,2.28-73,7.61-81.61-6.09-9.89-17.51,6.18-41.87-27.2-54-22.26-8.37-51.93-6.09-65.53,8.37-9.89,11.42-4.95,25.88,14.84,31.21,12.36,3,28.44,0,32.15-8.37,1.24-3.81,0-8.37-6.18-10.66-7.42-3-14.84,3-19.78,3-11.13-.76-11.13-11.42-4.95-16.75,14.84-11.42,42-8.37,56.88,1.52,18.55,11.42,18.55,29.69,2.47,42.63-2.47,2.28-1.24,5.33-1.24,7.61,17.31-16,22.26-38.82,0-53.28-12.36-7.61-29.67-10.66-47-8.37-17.31,3-29.68,11.42-30.91,22.07,0,6.09,2.47,11.42,9.89,16,7.42,3.81,16.07,4.57,24.73,3.81,8.66-1.52,12.36-6.09,11.13-11.42-1.24-1.52-2.47-4.57-3.71-3-6.18,3,4.95,6.09-1.24,9.9-11.13,6.09-26,3-33.38-3.81-6.18-5.33-6.18-11.42-3.71-17.51,3.71-9.13,17.31-14.46,30.91-16,24.73-2.28,49.46,7.61,54.4,22.07-6.18-11.42-26-19.79-45.75-19.79A41.76,41.76,0,0,0,567,333.67c-4.95,5.33-6.18,18.27,7.42,16.75,4.95-.76,12.36-4.57,18.55-2.28,12.36,5.33,4.95,16.75-8.66,19-14.84,2.28-28.44-3-34.62-11.42-9.89-15.22,8.66-31.21,33.38-33.49,29.68-2.28,56.88,12.18,58.11,29.69,1.24,16.75-11.13,47.19,32.15,43.39,1.24-.76-2.47-2.28-1.24-2.28,28.44,1.52,51.93,14.46,69.24,28.93,17.31,15.22,1.24,35-24.17,41.14a66.18,66.18,0,0,0,5.25,7.21c7.81,9.35,18.81,17.54,32.52,23.2,47,19.4,94-4.23,126.07,13.67,33.24,18.58,34.52,102.07,34.53,102.09,27.6,69.6,166.05,73.78,83.44-42.28q-50-97-50-97S965.49,502.23,998.55,566.6Z" transform="translate(-210.81 -211)"/></g><g id="Texte"><path class="cls-4" d="M505.92,796.08h42.41l-.07,92.07h41.6v16.77H505.92Z" transform="translate(-210.81 -211)"/><path class="cls-4" d="M613.79,882.07a21.08,21.08,0,0,1,2.34-9.81,23.54,23.54,0,0,1,6.74-7.91A33.86,33.86,0,0,1,633.49,859a46.67,46.67,0,0,1,13.92-1.94,55.49,55.49,0,0,1,14.39,1.79A42.66,42.66,0,0,1,673,863.47v-.59a29.18,29.18,0,0,0-1.14-8.72,13,13,0,0,0-9.45-9.16,31.57,31.57,0,0,0-8.53-1,57.85,57.85,0,0,0-9.23.77,48.17,48.17,0,0,0-8.79,2.23l-5.35-9.89a76,76,0,0,1,16.52-4.72,106.53,106.53,0,0,1,17.61-1.43,85.76,85.76,0,0,1,20.62,2.23,43.31,43.31,0,0,1,15.09,6.67A28.59,28.59,0,0,1,709.66,851a36.61,36.61,0,0,1,3.15,15.71v38.23H675.68l-2.49-7a34,34,0,0,1-5.2,3.22,45.25,45.25,0,0,1-6.59,2.71,51.08,51.08,0,0,1-7.62,1.83,52.12,52.12,0,0,1-8.42.66,42.43,42.43,0,0,1-13-1.87,31.41,31.41,0,0,1-9.92-5.09,23,23,0,0,1-6.37-7.65A20.8,20.8,0,0,1,613.79,882.07Zm41-1.54a8.46,8.46,0,0,0,2.56,6.41,9.53,9.53,0,0,0,6.88,2.45,14.3,14.3,0,0,0,4.61-.77,13.51,13.51,0,0,0,4.17-2.31V873.94a15.37,15.37,0,0,0-8.06-2.2q-5,0-7.58,2.45A8.32,8.32,0,0,0,654.8,880.53Z" transform="translate(-210.81 -211)"/><path class="cls-4" d="M811.73,796.08h30l41.16,57,39.11-57h29.15V904.92H908.85V849.33l-40.58,57-40.43-57v55.59H811.73Z" transform="translate(-210.81 -211)"/><path class="cls-4" d="M985.52,882.07a21.08,21.08,0,0,1,2.34-9.81,23.54,23.54,0,0,1,6.74-7.91,33.86,33.86,0,0,1,10.62-5.31,46.67,46.67,0,0,1,13.92-1.94,55.5,55.5,0,0,1,14.39,1.79,42.67,42.67,0,0,1,11.24,4.58v-.59a29.19,29.19,0,0,0-1.13-8.72,13,13,0,0,0-9.45-9.16,31.56,31.56,0,0,0-8.53-1,57.84,57.84,0,0,0-9.23.77,48.17,48.17,0,0,0-8.79,2.23l-5.35-9.89a76,76,0,0,1,16.52-4.72,106.54,106.54,0,0,1,17.62-1.43,85.76,85.76,0,0,1,20.62,2.23,43.31,43.31,0,0,1,15.09,6.67,28.59,28.59,0,0,1,9.27,11.13,36.61,36.61,0,0,1,3.15,15.71v38.23h-37.13l-2.49-7a34,34,0,0,1-5.2,3.22,45.25,45.25,0,0,1-6.59,2.71,51.1,51.1,0,0,1-7.62,1.83,52.12,52.12,0,0,1-8.42.66,42.42,42.42,0,0,1-13-1.87,31.4,31.4,0,0,1-9.92-5.09,23,23,0,0,1-6.37-7.65A20.8,20.8,0,0,1,985.52,882.07Zm41-1.54a8.46,8.46,0,0,0,2.56,6.41,9.54,9.54,0,0,0,6.88,2.45,14.3,14.3,0,0,0,4.61-.77,13.51,13.51,0,0,0,4.17-2.31V873.94a15.37,15.37,0,0,0-8.06-2.2q-5,0-7.58,2.45A8.32,8.32,0,0,0,1026.54,880.53Z" transform="translate(-210.81 -211)"/><path class="cls-4" d="M1119.32,784h39.77V904.92h-39.77Z" transform="translate(-210.81 -211)"/><path class="cls-4" d="M1214.45,820.25a32.79,32.79,0,0,1-9.34-1.17,17.76,17.76,0,0,1-6.41-3.26A12.86,12.86,0,0,1,1195,811a15.7,15.7,0,0,1,0-11.9,12.79,12.79,0,0,1,3.66-4.87,17.78,17.78,0,0,1,6.41-3.26,37.94,37.94,0,0,1,18.71,0,18.22,18.22,0,0,1,6.41,3.26,12.67,12.67,0,0,1,3.7,4.87,15.7,15.7,0,0,1,0,11.9,12.74,12.74,0,0,1-3.7,4.83,18.2,18.2,0,0,1-6.41,3.26A32.72,32.72,0,0,1,1214.45,820.25Zm-19.85,12.08h39.77v72.58H1194.6Z" transform="translate(-210.81 -211)"/><path class="cls-4" d="M1269.88,832.34H1305l3.52,10.55a61.76,61.76,0,0,1,15.78-8.94,47.76,47.76,0,0,1,16.88-3,25.89,25.89,0,0,1,9.41,1.68,19.92,19.92,0,0,1,7.58,5.2,24.64,24.64,0,0,1,5.05,9A42.29,42.29,0,0,1,1365,860.1v44.82h-39.77V857.61q0-3.81-1.68-5.57a6.49,6.49,0,0,0-4.91-1.76,14.56,14.56,0,0,0-4.69.88,10.33,10.33,0,0,0-4.32,2.78v51h-39.77Z" transform="translate(-210.81 -211)"/><path class="cls-4" d="M1395,868.23a31.52,31.52,0,0,1,7.43-20.84,36.67,36.67,0,0,1,8.24-7.21A52.24,52.24,0,0,1,1421,835a64.89,64.89,0,0,1,11.65-3.08,73.9,73.9,0,0,1,12.3-1,62.48,62.48,0,0,1,14.91,1.65,49.55,49.55,0,0,1,11.94,4.5,40,40,0,0,1,15.46,14.76,35.11,35.11,0,0,1,3.73,8.83,34.35,34.35,0,0,1,1.21,8.86l-55.37,6.67q1.61,8.13,6.45,12.6t13.55,4.47a32.53,32.53,0,0,0,8.9-1.17,20.94,20.94,0,0,0,6.48-2.86l5.86,10.25a63.41,63.41,0,0,1-5.9,2.64,53,53,0,0,1-7,2.16,74.45,74.45,0,0,1-8.5,1.46,87.53,87.53,0,0,1-10.22.55,75.41,75.41,0,0,1-23-3.11,47.83,47.83,0,0,1-16-8.35,32.88,32.88,0,0,1-9.37-12.12A35.49,35.49,0,0,1,1395,868.23Zm61.67-6.15q0-9.52-2.38-13.84a7.63,7.63,0,0,0-7.07-4.32,8.86,8.86,0,0,0-4.47,1.17,9.8,9.8,0,0,0-3.52,3.66,22.33,22.33,0,0,0-2.34,6.41,46.77,46.77,0,0,0-1,9.48Z" transform="translate(-210.81 -211)"/></g></svg>